<?xml version="1.0" standalone="no"?>
<!DOCTYPE svg PUBLIC "-//W3C//DTD SVG 20010904//EN"
 "http://www.w3.org/TR/2001/REC-SVG-20010904/DTD/svg10.dtd">
<svg version="1.0" xmlns="http://www.w3.org/2000/svg"
 width="1024.000000pt" height="1024.000000pt" viewBox="0 0 1024.000000 1024.000000"
 preserveAspectRatio="xMidYMid meet">

<g transform="translate(0.000000,1024.000000) scale(0.100000,-0.100000)"
fill="#000000" stroke="none">
<path d="M4910 10234 c-1158 -56 -2205 -464 -3095 -1207 -152 -127 -481 -457
-606 -607 -689 -828 -1080 -1766 -1185 -2840 -23 -237 -23 -682 0 -920 104
-1077 502 -2026 1194 -2850 214 -254 558 -578 837 -787 1332 -1001 3096 -1286
4680 -758 617 205 1165 513 1685 944 150 124 479 453 607 606 514 616 873
1318 1057 2065 107 435 149 788 149 1240 0 452 -42 805 -149 1240 -184 749
-542 1448 -1057 2065 -129 154 -458 482 -612 611 -819 681 -1775 1080 -2825
1179 -158 14 -544 25 -680 19z m-2062 -1863 c352 -101 582 -406 582 -772 0
-356 -230 -662 -575 -765 -120 -35 -298 -38 -418 -6 -244 66 -456 258 -543
492 -79 210 -70 426 26 626 111 230 332 399 582 444 84 14 262 5 346 -19z
m4186 -2051 c245 -16 402 -56 579 -147 414 -214 680 -634 757 -1198 18 -129
29 -893 29 -2052 l1 -1083 -686 0 -686 0 4 1298 c3 1437 7 1340 -61 1532 -78
221 -241 374 -458 431 -100 26 -285 29 -393 5 -156 -33 -314 -134 -407 -259
-58 -79 -125 -219 -154 -322 -31 -114 -37 -380 -38 -1642 l-1 -1043 -680 0
-680 0 0 943 c0 519 3 1505 7 2190 l6 1247 644 0 643 0 0 -301 0 -300 60 89
c74 110 241 274 366 357 159 106 342 193 485 231 117 31 397 41 663 24z
m-3714 -2300 l0 -2180 -682 2 -683 3 -3 2178 -2 2177 685 0 685 0 0 -2180z"/>
</g>
</svg>
