<?xml version="1.0" standalone="no"?>
<!DOCTYPE svg PUBLIC "-//W3C//DTD SVG 20010904//EN"
 "http://www.w3.org/TR/2001/REC-SVG-20010904/DTD/svg10.dtd">
<svg version="1.0" xmlns="http://www.w3.org/2000/svg"
 width="1024.000000pt" height="1024.000000pt" viewBox="0 0 1024.000000 1024.000000"
 preserveAspectRatio="xMidYMid meet">

<g transform="translate(0.000000,1024.000000) scale(0.100000,-0.100000)"
fill="#000000" stroke="none">
<path d="M4845 10230 c-1023 -61 -1973 -405 -2781 -1007 -203 -152 -361 -289
-559 -488 -198 -197 -334 -354 -488 -559 -835 -1120 -1173 -2522 -941 -3911
132 -792 456 -1550 941 -2201 281 -376 648 -745 1018 -1025 442 -333 961 -607
1470 -774 243 -81 570 -162 768 -190 l47 -7 0 1786 0 1786 -650 0 -650 0 0
740 0 740 649 0 650 0 4 723 c3 693 4 727 25 847 80 447 237 775 497 1035 255
254 577 413 985 485 101 18 176 23 390 27 295 6 554 -10 890 -53 107 -14 216
-28 243 -31 l47 -6 0 -633 0 -634 -327 0 c-486 -1 -589 -14 -763 -97 -185 -89
-310 -251 -361 -469 -20 -83 -22 -123 -26 -641 l-5 -553 711 0 c628 0 711 -2
711 -15 0 -8 -49 -337 -110 -730 -60 -393 -110 -719 -110 -725 0 -7 -201 -10
-600 -10 l-600 0 0 -1785 c0 -1763 0 -1785 19 -1785 38 0 327 61 481 101 626
164 1233 456 1756 846 387 289 758 660 1047 1047 323 434 577 919 749 1431
382 1141 348 2386 -96 3515 -114 290 -327 694 -506 960 -314 467 -740 914
-1194 1253 -770 574 -1678 917 -2641 996 -183 16 -522 21 -690 11z"/>
</g>
</svg>
