<?xml version="1.0" standalone="no"?>
<!DOCTYPE svg PUBLIC "-//W3C//DTD SVG 20010904//EN"
 "http://www.w3.org/TR/2001/REC-SVG-20010904/DTD/svg10.dtd">
<svg version="1.0" xmlns="http://www.w3.org/2000/svg"
 width="1024.000000pt" height="1024.000000pt" viewBox="0 0 1024.000000 1024.000000"
 preserveAspectRatio="xMidYMid meet">

<g transform="translate(0.000000,1024.000000) scale(0.100000,-0.100000)"
fill="#000000" stroke="none">
<path d="M5885 8768 c-1056 -384 -2752 -1002 -3770 -1373 -1816 -661 -1850
-674 -1862 -704 -23 -56 -100 -335 -127 -457 -183 -846 -159 -1712 70 -2513
239 -833 663 -1561 1269 -2180 676 -689 1501 -1162 2430 -1391 1713 -422 3529
69 4784 1295 181 177 304 311 434 473 854 1064 1247 2427 1092 3787 -103 893
-439 1743 -980 2470 -276 372 -668 764 -1040 1040 -105 79 -368 256 -376 254
-2 0 -868 -316 -1924 -701z m418 -784 c829 -121 1473 -770 1592 -1605 12 -87
15 -294 15 -1249 0 -740 -4 -1176 -10 -1230 -69 -555 -364 -1036 -825 -1345
-247 -166 -540 -272 -837 -304 -62 -7 -470 -11 -1118 -11 -648 0 -1056 4
-1118 11 -217 23 -417 81 -618 179 -576 280 -967 831 -1044 1470 -8 68 -10
439 -8 1290 l4 1195 26 117 c55 242 153 477 273 657 234 349 566 608 951 741
106 37 300 82 394 93 19 2 525 5 1123 5 958 2 1102 0 1200 -14z"/>
<path d="M4078 7539 c-680 -60 -1219 -594 -1289 -1279 -7 -71 -9 -471 -7
-1220 4 -1107 4 -1116 26 -1212 117 -513 472 -908 958 -1067 210 -68 174 -66
1359 -66 987 0 1077 1 1165 18 287 54 543 190 750 397 202 201 329 435 392
723 l23 102 0 1180 c0 1093 -1 1186 -18 1268 -129 635 -631 1094 -1266 1157
-120 12 -1958 11 -2093 -1z m2646 -642 c72 -33 117 -76 157 -149 32 -59 34
-69 34 -153 0 -73 -5 -99 -23 -136 -37 -75 -87 -125 -160 -161 -59 -29 -76
-33 -147 -33 -97 1 -152 23 -223 89 -144 134 -141 353 5 486 98 90 236 112
357 57z m-1324 -362 c112 -24 267 -78 361 -125 510 -257 819 -779 796 -1345
-16 -376 -155 -695 -421 -961 -207 -206 -442 -334 -729 -396 -137 -29 -417
-32 -551 -5 -294 59 -542 192 -752 401 -206 207 -331 435 -396 727 -19 88 -23
132 -23 289 0 157 4 201 23 289 63 280 182 507 372 704 233 244 521 389 875
441 67 10 372 -3 445 -19z"/>
<path d="M4995 6099 c-225 -30 -415 -125 -575 -288 -133 -134 -217 -284 -262
-468 -32 -130 -30 -332 5 -463 48 -184 130 -326 266 -460 133 -133 283 -216
468 -262 130 -32 332 -30 463 5 295 77 538 281 662 555 58 128 80 240 80 402
0 162 -22 274 -80 402 -128 283 -397 501 -692 562 -100 20 -248 27 -335 15z"/>
</g>
</svg>
